<svg xmlns="http://www.w3.org/2000/svg" width="1000" height="560" viewBox="0 0 1000 560">
<style>text{font-family:Arial,sans-serif;fill:#202124} .title{font-size:24px;font-weight:700} .subtitle{font-size:15px;fill:#5f6368} .axis{stroke:#5f6368;stroke-width:1} .grid{stroke:#dadce0;stroke-width:1} .label{font-size:14px} .small{font-size:12px} .box{stroke:#202124;stroke-width:2;rx:12} .arrow{stroke:#5f6368;stroke-width:2;fill:none;marker-end:url(#arrow)} .dash{stroke-dasharray:7 6}</style>
<defs><marker id="arrow" markerWidth="10" markerHeight="10" refX="8" refY="3" orient="auto"><path d="M0,0 L0,6 L9,3 z" fill="#5f6368"/></marker></defs>
<text x="40" y="42" class="title">Figure 4. Stage IX model-to-physics factorization gap</text>
<line x1="100" y1="400.0" x2="800" y2="400.0" class="grid"/>
<text x="90" y="405.0" text-anchor="end" class="small">0.0</text>
<line x1="100" y1="340.0" x2="800" y2="340.0" class="grid"/>
<text x="90" y="345.0" text-anchor="end" class="small">0.2</text>
<line x1="100" y1="280.0" x2="800" y2="280.0" class="grid"/>
<text x="90" y="285.0" text-anchor="end" class="small">0.4</text>
<line x1="100" y1="220.0" x2="800" y2="220.0" class="grid"/>
<text x="90" y="225.0" text-anchor="end" class="small">0.6</text>
<line x1="100" y1="160.0" x2="800" y2="160.0" class="grid"/>
<text x="90" y="165.0" text-anchor="end" class="small">0.8</text>
<line x1="100" y1="100.0" x2="800" y2="100.0" class="grid"/>
<text x="90" y="105.0" text-anchor="end" class="small">1.0</text>
<line x1="100" y1="100" x2="100" y2="400" class="axis"/>
<line x1="100" y1="400" x2="800" y2="400" class="axis"/>
<rect x="170.7" y="138.8" width="36" height="261.2" fill="#4e79a7"/>
<text x="188.7" y="130.8" text-anchor="middle" class="small">0.871</text>
<rect x="226.7" y="254.9" width="36" height="145.1" fill="#e15759"/>
<text x="244.7" y="246.9" text-anchor="middle" class="small">0.484</text>
<text x="216.66666666666669" y="428" text-anchor="middle" class="label">E0</text>
<rect x="404.0" y="129.8" width="36" height="270.2" fill="#4e79a7"/>
<text x="422.0" y="121.8" text-anchor="middle" class="small">0.901</text>
<rect x="460.0" y="243.7" width="36" height="156.3" fill="#e15759"/>
<text x="478.0" y="235.7" text-anchor="middle" class="small">0.521</text>
<text x="450.00000000000006" y="428" text-anchor="middle" class="label">E1</text>
<rect x="637.3" y="130.9" width="36" height="269.1" fill="#4e79a7"/>
<text x="655.3" y="122.9" text-anchor="middle" class="small">0.897</text>
<rect x="693.3" y="243.0" width="36" height="157.0" fill="#e15759"/>
<text x="711.3" y="235.0" text-anchor="middle" class="small">0.523</text>
<text x="683.3333333333334" y="428" text-anchor="middle" class="label">E3</text>
<rect x="860" y="145" width="18" height="18" fill="#4e79a7"/><text x="888" y="159" class="small">model-side AUROC</text>
<rect x="860" y="180" width="18" height="18" fill="#e15759"/><text x="888" y="194" class="small">parent-macro AUC</text>
<text x="500" y="470" text-anchor="middle" class="label">high targetability scores did not provide reliable factorized timing utility</text>
<text x="40" y="536" class="subtitle">Stage IX is no-environment model-side evidence; it is not physical attack efficacy.</text>
</svg>
