<svg xmlns="http://www.w3.org/2000/svg" width="1000" height="560" viewBox="0 0 1000 560">
<style>text{font-family:Arial,sans-serif;fill:#202124} .title{font-size:24px;font-weight:700} .subtitle{font-size:15px;fill:#5f6368} .axis{stroke:#5f6368;stroke-width:1} .grid{stroke:#dadce0;stroke-width:1} .label{font-size:14px} .small{font-size:12px} .box{stroke:#202124;stroke-width:2;rx:12} .arrow{stroke:#5f6368;stroke-width:2;fill:none;marker-end:url(#arrow)} .dash{stroke-dasharray:7 6}</style>
<defs><marker id="arrow" markerWidth="10" markerHeight="10" refX="8" refY="3" orient="auto"><path d="M0,0 L0,6 L9,3 z" fill="#5f6368"/></marker></defs>
<text x="40" y="42" class="title">Figure 2. X0 dose response and OPEN duty-cycle mechanism</text>
<line x1="90" y1="400.0" x2="440" y2="400.0" class="grid"/>
<text x="80" y="405.0" text-anchor="end" class="small">0.0</text>
<line x1="90" y1="340.0" x2="440" y2="340.0" class="grid"/>
<text x="80" y="345.0" text-anchor="end" class="small">0.2</text>
<line x1="90" y1="280.0" x2="440" y2="280.0" class="grid"/>
<text x="80" y="285.0" text-anchor="end" class="small">0.4</text>
<line x1="90" y1="220.0" x2="440" y2="220.0" class="grid"/>
<text x="80" y="225.0" text-anchor="end" class="small">0.6</text>
<line x1="90" y1="160.0" x2="440" y2="160.0" class="grid"/>
<text x="80" y="165.0" text-anchor="end" class="small">0.8</text>
<line x1="90" y1="100.0" x2="440" y2="100.0" class="grid"/>
<text x="80" y="105.0" text-anchor="end" class="small">1.0</text>
<line x1="90" y1="100" x2="90" y2="400" class="axis"/>
<line x1="90" y1="400" x2="440" y2="400" class="axis"/>
<rect x="112.2" y="281.7" width="72.3" height="118.3" fill="#9ecae1"/>
<text x="148.3" y="273.7" text-anchor="middle" class="label">0.394</text>
<text x="148.3" y="424" text-anchor="middle" class="label">T3</text>
<rect x="228.8" y="196.7" width="72.3" height="203.3" fill="#6baed6"/>
<text x="265.0" y="188.7" text-anchor="middle" class="label">0.678</text>
<text x="265.0" y="424" text-anchor="middle" class="label">T5</text>
<rect x="345.5" y="138.1" width="72.3" height="261.9" fill="#2171b5"/>
<text x="381.7" y="130.1" text-anchor="middle" class="label">0.873</text>
<text x="381.7" y="424" text-anchor="middle" class="label">T10</text>
<text x="265" y="455" text-anchor="middle" class="label">raw consumable V_phys positive rate</text>
<rect x="505" y="205" width="105" height="105" class="box" fill="#fff4e6"/>
<text x="557" y="245" text-anchor="middle" class="small">command delivery</text>
<text x="557" y="275" text-anchor="middle" class="small">exact for eligible rows</text>
<rect x="625" y="205" width="105" height="105" class="box" fill="#fff4e6"/>
<text x="677" y="245" text-anchor="middle" class="small">aperture excess</text>
<text x="677" y="275" text-anchor="middle" class="small">increases with dose</text>
<rect x="745" y="205" width="105" height="105" class="box" fill="#fff4e6"/>
<text x="797" y="245" text-anchor="middle" class="small">contact loss</text>
<text x="797" y="275" text-anchor="middle" class="small">incidence increases</text>
<rect x="865" y="205" width="105" height="105" class="box" fill="#fff4e6"/>
<text x="917" y="245" text-anchor="middle" class="small">displacement</text>
<text x="917" y="275" text-anchor="middle" class="small">increases</text>
<path d="M610 257 L625 257" class="arrow"/>
<path d="M730 257 L745 257" class="arrow"/>
<path d="M850 257 L865 257" class="arrow"/>
<text x="710" y="365" text-anchor="middle" class="label">mechanism-consistent descriptive chain</text>
<text x="710" y="395" text-anchor="middle" class="small">1,126 complete three-dose patterns were all monotone: 000/001/011/111.</text>
<text x="40" y="536" class="subtitle">X0 is descriptive/mechanistic and bounded-counterfactual evidence; it is not formal mediation.</text>
</svg>
